<?xml version="1.0" encoding="UTF-8" standalone="no"?>
<svg
   xmlns:dc="http://purl.org/dc/elements/1.1/"
   xmlns:cc="http://creativecommons.org/ns#"
   xmlns:rdf="http://www.w3.org/1999/02/22-rdf-syntax-ns#"
   xmlns:svg="http://www.w3.org/2000/svg"
   xmlns="http://www.w3.org/2000/svg"
   xmlns:sodipodi="http://sodipodi.sourceforge.net/DTD/sodipodi-0.dtd"
   xmlns:inkscape="http://www.inkscape.org/namespaces/inkscape"
   version="1.1"
   id="_x32_"
   x="0px"
   y="0px"
   viewBox="0 0 32 32"
   style="opacity:1"
   xml:space="preserve"
   sodipodi:docname="folder.svg"
   width="32"
   height="32"
   inkscape:version="1.0 (4035a4fb49, 2020-05-01)"><metadata
   id="metadata15"><rdf:RDF><cc:Work
       rdf:about=""><dc:format>image/svg+xml</dc:format><dc:type
         rdf:resource="http://purl.org/dc/dcmitype/StillImage" /><dc:title /></cc:Work></rdf:RDF></metadata><defs
   id="defs13" /><sodipodi:namedview
   inkscape:document-rotation="0"
   pagecolor="#ffffff"
   bordercolor="#666666"
   borderopacity="1"
   objecttolerance="10"
   gridtolerance="10"
   guidetolerance="10"
   inkscape:pageopacity="0"
   inkscape:pageshadow="2"
   inkscape:window-width="1366"
   inkscape:window-height="705"
   id="namedview11"
   showgrid="false"
   inkscape:snap-bbox="true"
   inkscape:snap-page="true"
   inkscape:snap-global="true"
   inkscape:zoom="2.7400388"
   inkscape:cx="104.6672"
   inkscape:cy="44.445711"
   inkscape:window-x="-8"
   inkscape:window-y="-8"
   inkscape:window-maximized="1"
   inkscape:current-layer="_x32_" />
<style
   type="text/css"
   id="style2">
	.st0{fill:#4B4B4B;}
</style>
<rect
   y="2.4424907e-15"
   x="-7.2164497e-16"
   height="32"
   width="32"
   id="rect10"
   style="fill:#ffffff;stroke:none;stroke-width:2.03965;paint-order:fill markers stroke;stop-color:#000000" /><g
   id="g8"
   transform="matrix(0.05695342,0,0,0.05695342,1.9600913,1.419896)">
	<polygon
   class="st0"
   points="0,384.277 48.324,303.005 48.324,159.353 386.59,159.353 386.59,191.569 434.913,191.569 434.913,111.029 209.403,111.029 144.971,62.705 0,62.705 0,106.231 0,112.973 "
   style="fill:#4b4b4b"
   id="polygon4" />
	<path
   class="st0"
   d="m 512,229.511 -80.392,146.817 -34.303,65.628 c -2.409,3.816 -7.017,7.34 -10.715,7.34 H 16.108 c -6.418,0 -8.571,-4.058 -8.699,-7.146 v -0.064 c 0,-0.064 0,-0.064 0,-0.129 L 122.104,229.513 c 1.851,-3.587 2.997,-5.726 6.759,-5.726 h 376.378 c 3.699,-0.003 6.759,2.635 6.759,5.724 z"
   style="fill:#4b4b4b"
   id="path6" />
</g>
</svg>
