<?xml version="1.0" encoding="UTF-8" standalone="no"?>
<!-- Created with Inkscape (http://www.inkscape.org/) -->

<svg
   xmlns:osb="http://www.openswatchbook.org/uri/2009/osb"
   xmlns:dc="http://purl.org/dc/elements/1.1/"
   xmlns:cc="http://creativecommons.org/ns#"
   xmlns:rdf="http://www.w3.org/1999/02/22-rdf-syntax-ns#"
   xmlns:svg="http://www.w3.org/2000/svg"
   xmlns="http://www.w3.org/2000/svg"
   xmlns:xlink="http://www.w3.org/1999/xlink"
   xmlns:sodipodi="http://sodipodi.sourceforge.net/DTD/sodipodi-0.dtd"
   xmlns:inkscape="http://www.inkscape.org/namespaces/inkscape"
   width="256"
   height="256"
   id="svg2"
   version="1.1"
   inkscape:version="0.48.4 r9939"
   sodipodi:docname="printer_a.svg"
   inkscape:export-filename="C:\Users\katahiromz\XWordGiver\XWordGiver\toolimage\printer_a.png"
   inkscape:export-xdpi="90"
   inkscape:export-ydpi="90">
  <defs
     id="defs4">
    <linearGradient
       id="linearGradient3808">
      <stop
         style="stop-color:#259a00;stop-opacity:1;"
         offset="0"
         id="stop3810" />
      <stop
         style="stop-color:#000000;stop-opacity:1;"
         offset="1"
         id="stop3812" />
    </linearGradient>
    <radialGradient
       r="128.10457"
       fy="127.89542"
       fx="128.10457"
       cy="127.89542"
       cx="128.10457"
       gradientTransform="translate(2.3437499e-7,796.36214)"
       gradientUnits="userSpaceOnUse"
       id="radialGradient3905"
       xlink:href="#linearGradient3807-1-2"
       inkscape:collect="always" />
    <linearGradient
       id="linearGradient3807-1-2">
      <stop
         style="stop-color:#ec2d2d;stop-opacity:1;"
         offset="0"
         id="stop3809-6-7" />
      <stop
         id="stop3815-8-7"
         offset="1"
         style="stop-color:#fce8f9;stop-opacity:1;" />
    </linearGradient>
    <radialGradient
       r="128.10457"
       fy="127.89542"
       fx="128.10457"
       cy="127.89542"
       cx="128.10457"
       gradientTransform="translate(1.4391113e-5,796.36216)"
       gradientUnits="userSpaceOnUse"
       id="radialGradient4277"
       xlink:href="#linearGradient3807-1-2"
       inkscape:collect="always" />
    <radialGradient
       inkscape:collect="always"
       xlink:href="#linearGradient3808"
       id="radialGradient3824"
       cx="-141.83006"
       cy="64.496735"
       fx="-141.83006"
       fy="64.496735"
       r="18.954248"
       gradientUnits="userSpaceOnUse" />
    <radialGradient
       inkscape:collect="always"
       xlink:href="#linearGradient3808"
       id="radialGradient3832"
       gradientUnits="userSpaceOnUse"
       cx="-141.83006"
       cy="64.496735"
       fx="-141.83006"
       fy="64.496735"
       r="18.954248" />
    <linearGradient
       id="linearGradient7259-3">
      <stop
         style="stop-color:#e2e2e2;stop-opacity:0.24705882;"
         offset="0"
         id="stop7319" />
      <stop
         id="stop7263-8"
         offset="1"
         style="stop-color:#e7e7e7;stop-opacity:0;" />
    </linearGradient>
    <linearGradient
       gradientUnits="userSpaceOnUse"
       y2="84.758171"
       x2="152.28758"
       y1="84.758171"
       x1="73.575165"
       id="linearGradient7265-8"
       xlink:href="#linearGradient7259-3"
       inkscape:collect="always" />
    <linearGradient
       id="linearGradient7245">
      <stop
         id="stop7247"
         offset="0"
         style="stop-color:#f8e7e7;stop-opacity:1;" />
      <stop
         style="stop-color:#b7abab;stop-opacity:0.74901961;"
         offset="0.25"
         id="stop7255" />
      <stop
         style="stop-color:#777070;stop-opacity:0.49803922;"
         offset="0.5"
         id="stop7253" />
      <stop
         id="stop7249"
         offset="1"
         style="stop-color:#000000;stop-opacity:0;" />
    </linearGradient>
    <linearGradient
       id="linearGradient7259">
      <stop
         style="stop-color:#d1d1d1;stop-opacity:1;"
         offset="0"
         id="stop7267" />
      <stop
         id="stop7273"
         offset="0.25"
         style="stop-color:#c6c6c6;stop-opacity:0.74901961;" />
      <stop
         id="stop7271"
         offset="0.5"
         style="stop-color:#bcbcbc;stop-opacity:0.49803922;" />
      <stop
         id="stop7263"
         offset="1"
         style="stop-color:#e7e7e7;stop-opacity:0;" />
    </linearGradient>
    <linearGradient
       osb:paint="solid"
       id="linearGradient8767">
      <stop
         id="stop8769"
         offset="0"
         style="stop-color:#000000;stop-opacity:1;" />
    </linearGradient>
    <linearGradient
       id="linearGradient8791">
      <stop
         id="stop8801"
         offset="0"
         style="stop-color:#d6d6d6;stop-opacity:0.49803922;" />
      <stop
         id="stop8795"
         offset="1"
         style="stop-color:#d0d0d0;stop-opacity:0;" />
    </linearGradient>
  </defs>
  <sodipodi:namedview
     id="base"
     pagecolor="#ffffff"
     bordercolor="#666666"
     borderopacity="1.0"
     inkscape:pageopacity="0.0"
     inkscape:pageshadow="2"
     inkscape:zoom="1.53"
     inkscape:cx="4.4575201"
     inkscape:cy="129.74376"
     inkscape:document-units="px"
     inkscape:current-layer="layer1-1"
     showgrid="false"
     showguides="true"
     inkscape:guide-bbox="true"
     inkscape:window-width="1366"
     inkscape:window-height="721"
     inkscape:window-x="-4"
     inkscape:window-y="-4"
     inkscape:window-maximized="1"
     inkscape:snap-bbox="true"
     inkscape:bbox-paths="true"
     inkscape:bbox-nodes="true"
     inkscape:snap-bbox-edge-midpoints="true"
     inkscape:snap-bbox-midpoints="true"
     inkscape:snap-page="true"
     inkscape:snap-global="true">
    <sodipodi:guide
       orientation="1,0"
       position="0,56.862745"
       id="guide2985" />
    <sodipodi:guide
       orientation="1,0"
       position="128.10458,71.895425"
       id="guide2987" />
    <sodipodi:guide
       orientation="1,0"
       position="256.20915,156.86275"
       id="guide2989" />
    <sodipodi:guide
       orientation="0,1"
       position="143.13725,0"
       id="guide2991" />
    <sodipodi:guide
       orientation="0,1"
       position="152.28758,128.10458"
       id="guide2993" />
    <sodipodi:guide
       orientation="0,1"
       position="174.5098,256.20915"
       id="guide2995" />
    <sodipodi:guide
       orientation="1,0"
       position="15.03268,97.385621"
       id="guide2999" />
    <sodipodi:guide
       orientation="0,1"
       position="15.03268,15.03268"
       id="guide3001" />
    <sodipodi:guide
       orientation="1,0"
       position="241.17647,68.627451"
       id="guide3003" />
    <sodipodi:guide
       orientation="0,1"
       position="188.23529,241.17647"
       id="guide3005" />
  </sodipodi:namedview>
  <metadata
     id="metadata7">
    <rdf:RDF>
      <cc:Work
         rdf:about="">
        <dc:format>image/svg+xml</dc:format>
        <dc:type
           rdf:resource="http://purl.org/dc/dcmitype/StillImage" />
        <dc:title />
      </cc:Work>
    </rdf:RDF>
  </metadata>
  <g
     inkscape:label="レイヤー 1"
     inkscape:groupmode="layer"
     id="layer1"
     transform="translate(0,-796.36218)">
    <rect
       style="opacity:0.95999995;fill:url(#radialGradient4277);fill-opacity:1;stroke:none"
       id="rect3029"
       width="256.20914"
       height="256.20917"
       x="1.1518555e-005"
       y="796.15302" />
    <rect
       style="opacity:0.95999995;fill:#000080;fill-opacity:1;stroke:#000000;stroke-width:6.71284914;stroke-linejoin:round;stroke-miterlimit:4;stroke-opacity:1;stroke-dasharray:none"
       id="rect3042"
       width="153.19989"
       height="75.857742"
       x="51.131195"
       y="886.6413" />
    <g
       transform="matrix(0.56719148,0,0,0.56719148,55.442034,355.82209)"
       id="g9446">
      <g
         id="g3892">
        <path
           inkscape:connector-curvature="0"
           style="opacity:0.95999995;fill:#ffffb6;fill-opacity:1;stroke:#000000;stroke-width:7.30000019;stroke-miterlimit:4;stroke-opacity:1;stroke-dasharray:none"
           d="m 185.625,15.65625 -0.84375,-0.84375 -169.75,0 0,226.15625 226.15625,0 0,-168.625 -55.5625,0 0,-56.6875 z"
           id="path3804"
           transform="translate(0,796.36218)" />
        <path
           style="opacity:0.95999995;fill:#ffffb6;fill-opacity:1;stroke:#000000;stroke-width:7.30000019;stroke-linejoin:round;stroke-miterlimit:4;stroke-opacity:1;stroke-dasharray:none"
           d="m 185.625,812.01843 0,56.6875 55.5625,0 0,-1.125 -55.5625,-55.5625 z"
           id="rect3007"
           inkscape:connector-curvature="0" />
      </g>
      <path
         inkscape:connector-curvature="0"
         id="path8886"
         d="m 37.9085,937.55206 179.08496,0 0,0 0,0"
         style="fill:#000080;stroke:#113fd5;stroke-width:12.96100044;stroke-linecap:butt;stroke-linejoin:miter;stroke-miterlimit:4;stroke-opacity:1;stroke-dasharray:none" />
      <path
         inkscape:connector-curvature="0"
         id="path8886-0"
         d="m 37.9085,973.38848 179.08497,0 0,0 0,0"
         style="fill:#000080;stroke:#113fd5;stroke-width:12.96100044;stroke-linecap:butt;stroke-linejoin:miter;stroke-miterlimit:4;stroke-opacity:1;stroke-dasharray:none" />
      <path
         inkscape:connector-curvature="0"
         id="path8886-8"
         d="m 37.9085,1009.2249 179.08495,0 0,0 0,0"
         style="fill:#000080;stroke:#113fd5;stroke-width:12.96100044;stroke-linecap:butt;stroke-linejoin:miter;stroke-miterlimit:4;stroke-opacity:1;stroke-dasharray:none" />
      <path
         inkscape:connector-curvature="0"
         id="path8886-9"
         d="m 37.9085,901.71565 179.08497,0 0,0 0,0"
         style="fill:#000080;stroke:#113fd5;stroke-width:12.96100044;stroke-linecap:butt;stroke-linejoin:miter;stroke-miterlimit:4;stroke-opacity:1;stroke-dasharray:none" />
      <path
         inkscape:connector-curvature="0"
         id="path8886-9-2"
         d="m 36.809761,864.78049 120.381129,0 0,0 0,0"
         style="fill:#000080;stroke:#113fd5;stroke-width:12.96100044;stroke-linecap:butt;stroke-linejoin:miter;stroke-miterlimit:4;stroke-opacity:1;stroke-dasharray:none" />
    </g>
    <g
       id="g3038"
       transform="translate(0,46)">
      <path
         transform="translate(0,796.36218)"
         id="path3013"
         d="m 218.28125,184.53125 0,-29.75 c 0,-2.59358 -0.25273,-5.12004 -0.75,-7.5625 -0.49727,-2.44246 -1.24241,-4.78937 -2.1875,-7.03125 -0.94509,-2.24188 -2.09404,-4.38314 -3.4375,-6.375 -1.34346,-1.99186 -2.87012,-3.83887 -4.5625,-5.53125 -1.69238,-1.69238 -3.53939,-3.21904 -5.53125,-4.5625 -1.99186,-1.34346 -4.13312,-2.49241 -6.375,-3.4375 -2.24188,-0.94509 -4.58879,-1.69023 -7.03125,-2.1875 -2.44246,-0.49727 -4.96892,-0.75 -7.5625,-0.75 l -105.46875,0 c -2.593582,0 -5.120044,0.25273 -7.5625,0.75 -2.442456,0.49727 -4.82062,1.24241 -7.0625,2.1875 -2.24188,0.94509 -4.351894,2.09404 -6.34375,3.4375 -1.991856,1.34346 -3.838867,2.87012 -5.53125,4.5625 -1.692383,1.69238 -3.25029,3.53939 -4.59375,5.53125 -1.34346,1.99186 -2.492411,4.13312 -3.4375,6.375 -0.945089,2.24188 -1.658981,4.58879 -2.15625,7.03125 -0.497269,2.44246 -0.78125,4.96892 -0.78125,7.5625 l 0,29.75 c 4.419165,1.8396 9.274273,2.84375 14.375,2.84375 l 151.625,0 c 5.10073,0 9.95583,-1.00415 14.375,-2.84375 z"
         style="opacity:0.95999995;fill:#000080;fill-opacity:1;stroke:#000000;stroke-width:6.0999999;stroke-linejoin:round;stroke-miterlimit:4;stroke-opacity:1;stroke-dasharray:none"
         inkscape:connector-curvature="0" />
      <path
         transform="translate(0,796.36218)"
         id="rect2992"
         d="m 52.28125,67.125 c -20.639216,0 -37.25,16.610784 -37.25,37.25 l 0,45.75 c 0,15.53849 9.412772,28.80222 22.875,34.40625 l 0,-29.75 c 0,-2.59358 0.283981,-5.12004 0.78125,-7.5625 0.497269,-2.44246 1.211161,-4.78937 2.15625,-7.03125 0.945089,-2.24188 2.09404,-4.38314 3.4375,-6.375 1.34346,-1.99186 2.901367,-3.83887 4.59375,-5.53125 1.692383,-1.69238 3.539394,-3.21904 5.53125,-4.5625 1.991856,-1.34346 4.10187,-2.49241 6.34375,-3.4375 2.24188,-0.94509 4.620044,-1.69023 7.0625,-2.1875 2.442456,-0.49727 4.968918,-0.75 7.5625,-0.75 l 105.46875,0 c 2.59358,0 5.12004,0.25273 7.5625,0.75 2.44246,0.49727 4.78937,1.24241 7.03125,2.1875 2.24188,0.94509 4.38314,2.09404 6.375,3.4375 1.99186,1.34346 3.83887,2.87012 5.53125,4.5625 1.69238,1.69238 3.21904,3.53939 4.5625,5.53125 1.34346,1.99186 2.49241,4.13312 3.4375,6.375 0.94509,2.24188 1.69023,4.58879 2.1875,7.03125 0.49727,2.44246 0.75,4.96892 0.75,7.5625 l 0,29.75 c 13.46223,-5.60403 22.90625,-18.86776 22.90625,-34.40625 l 0,-45.75 c 0,-20.639216 -16.64203,-37.25 -37.28125,-37.25 l -151.625,0 z"
         style="opacity:0.95999995;fill:#e6e6e6;fill-opacity:1;stroke:#000000;stroke-width:6.0999999;stroke-linejoin:round;stroke-miterlimit:4;stroke-opacity:1;stroke-dasharray:none"
         inkscape:connector-curvature="0" />
    </g>
    <rect
       style="opacity:0.95999995;fill:#000000;fill-opacity:1;stroke:#404040;stroke-width:3.5;stroke-linejoin:round;stroke-miterlimit:4;stroke-opacity:1;stroke-dasharray:none"
       id="rect3011"
       width="141.17647"
       height="16.993464"
       x="57.411766"
       y="1011.2" />
    <g
       id="g3826"
       transform="matrix(0.55172414,0,0,0.55172414,287.63164,512.49973)">
      <path
         transform="translate(-46.405443,794.28978)"
         d="m -122.87581,64.496735 c 0,10.468142 -8.48611,18.954248 -18.95425,18.954248 -10.46815,0 -18.95425,-8.486106 -18.95425,-18.954248 0,-10.468143 8.4861,-18.954249 18.95425,-18.954249 10.46814,0 18.95425,8.486106 18.95425,18.954249 z"
         sodipodi:ry="18.954248"
         sodipodi:rx="18.954248"
         sodipodi:cy="64.496735"
         sodipodi:cx="-141.83006"
         id="path3794"
         style="opacity:0.95999995;fill:url(#radialGradient3832);fill-opacity:1;stroke:none"
         sodipodi:type="arc" />
      <g
         transform="matrix(0.2248101,0,0,0.2248101,-137.46956,661.89996)"
         id="g3804">
        <path
           inkscape:connector-curvature="0"
           style="opacity:0.95999995;fill:none;stroke:#72c3a2;stroke-width:13.95499992;stroke-linejoin:round;stroke-miterlimit:4;stroke-opacity:1;stroke-dasharray:none"
           d="m -207.46185,55.721155 c 10.09169,6.18409 16.82443,17.314489 16.82443,30.017404 l 0,0 c 0,19.429141 -15.75043,35.179571 -35.17957,35.179571 -19.42915,0 -35.17958,-15.75043 -35.17958,-35.179571 0,-12.700661 6.73035,-23.829364 16.81906,-30.014111"
           id="path3800"
           transform="translate(0,796.36218)" />
        <path
           style="fill:none;stroke:#72c3a2;stroke-width:9.55500031;stroke-linecap:butt;stroke-linejoin:miter;stroke-miterlimit:4;stroke-opacity:1;stroke-dasharray:none"
           d="m -225.817,832.10074 0,50.3268"
           id="path3802"
           inkscape:connector-curvature="0" />
      </g>
    </g>
    <g
       id="layer1-1"
       inkscape:label="レイヤー 1"
       transform="matrix(0.34894924,0,0,0.34894924,170.24022,529.18737)">
      <text
         sodipodi:linespacing="125%"
         id="text9560"
         y="990.45782"
         x="-484.36026"
         style="font-size:310.62536621px;font-style:normal;font-weight:normal;line-height:125%;letter-spacing:0px;word-spacing:0px;fill:#ff0000;fill-opacity:1;stroke:#000000;stroke-width:6.0999999;stroke-miterlimit:4;stroke-opacity:1;stroke-dasharray:none;font-family:Sans"
         xml:space="preserve"><tspan
           y="990.45782"
           x="-484.36026"
           id="tspan9562"
           sodipodi:role="line">A</tspan></text>
    </g>
  </g>
</svg>
