<?xml version="1.0" encoding="UTF-8" standalone="no"?>
<svg
   xmlns:dc="http://purl.org/dc/elements/1.1/"
   xmlns:cc="http://creativecommons.org/ns#"
   xmlns:rdf="http://www.w3.org/1999/02/22-rdf-syntax-ns#"
   xmlns:svg="http://www.w3.org/2000/svg"
   xmlns="http://www.w3.org/2000/svg"
   xmlns:sodipodi="http://sodipodi.sourceforge.net/DTD/sodipodi-0.dtd"
   xmlns:inkscape="http://www.inkscape.org/namespaces/inkscape"
   inkscape:version="1.0 (4035a4fb49, 2020-05-01)"
   height="32"
   width="32"
   sodipodi:docname="copy.svg"
   xml:space="preserve"
   style="opacity:1"
   viewBox="0 0 32 32"
   y="0px"
   x="0px"
   id="_x32_"
   version="1.1"><metadata
   id="metadata23"><rdf:RDF><cc:Work
       rdf:about=""><dc:format>image/svg+xml</dc:format><dc:type
         rdf:resource="http://purl.org/dc/dcmitype/StillImage" /><dc:title></dc:title></cc:Work></rdf:RDF></metadata><defs
   id="defs21">
	
	
	
	
	
	
</defs><sodipodi:namedview
   inkscape:current-layer="_x32_"
   inkscape:window-maximized="1"
   inkscape:window-y="-8"
   inkscape:window-x="-8"
   inkscape:cy="32.873398"
   inkscape:cx="86.670745"
   inkscape:zoom="2.7400388"
   inkscape:snap-global="true"
   inkscape:bbox-nodes="true"
   inkscape:snap-bbox-edge-midpoints="false"
   inkscape:snap-bbox-midpoints="false"
   inkscape:bbox-paths="true"
   inkscape:snap-bbox="true"
   inkscape:snap-nodes="true"
   inkscape:snap-page="true"
   showgrid="false"
   id="namedview19"
   inkscape:window-height="705"
   inkscape:window-width="1366"
   inkscape:pageshadow="2"
   inkscape:pageopacity="0"
   guidetolerance="10"
   gridtolerance="10"
   objecttolerance="10"
   borderopacity="1"
   bordercolor="#666666"
   pagecolor="#ffffff" />
<style
   id="style2"
   type="text/css">
	.st0{fill:#4B4B4B;}
</style>
<rect
   y="0"
   x="0"
   height="32"
   width="32"
   id="rect892"
   style="fill:#ffffff;stroke-width:1;stroke-miterlimit:4;stroke-dasharray:none;paint-order:fill markers stroke;stop-color:#000000" /><path
   class="st0"
   d="M 8.0769812,20.491141 H 19.060154 v 1.050251 H 8.0769812 Z"
   style="fill:#4b4b4b;stroke-width:1;stroke-miterlimit:4;stroke-dasharray:none"
   id="rect4" /><path
   class="st0"
   d="M 8.0769812,16.237759 H 19.060154 v 1.046805 H 8.0769812 Z"
   style="fill:#4b4b4b;stroke-width:1;stroke-miterlimit:4;stroke-dasharray:none"
   id="rect6" /><path
   class="st0"
   d="M 8.0769812,11.980591 H 19.060154 v 1.050251 H 8.0769812 Z"
   style="fill:#4b4b4b;stroke-width:1;stroke-miterlimit:4;stroke-dasharray:none"
   id="rect8" /><path
   class="st0"
   d="M 13.885796,7.7268126 H 19.06021 V 8.777064 h -5.174414 z"
   style="fill:#4b4b4b;stroke-width:1;stroke-miterlimit:4;stroke-dasharray:none"
   id="rect10" /><path
   class="st0"
   d="M 23.295004,23.920843 V 3.7738491 c 0,-0.1296146 -0.01113,-0.2600768 -0.03345,-0.3824027 C 23.07962,2.3373529 22.158983,1.5355955 21.05336,1.5355955 h -9.082742 c -0.653215,0 -1.276823,0.2600768 -1.736915,0.7202256 L 4.5661425,7.919483 C 4.1055982,8.383926 3.8459169,9.0070819 3.8459169,9.6607487 V 23.920843 c 0,1.231848 1.0060671,2.237859 2.2421522,2.237859 H 21.053304 c 1.235746,0 2.2417,-1.006011 2.2417,-2.237859 z M 11.176658,3.0910275 v 5.0328217 c 0,0.5459183 -0.211599,0.7570647 -0.753675,0.7570647 H 5.3902181 Z M 5.1043766,23.920843 V 9.9981196 h 5.9902974 c 0.196965,0 0.382403,-0.048026 0.545523,-0.1334567 0.23047,-0.1150372 0.415908,-0.3008144 0.527047,-0.5270467 C 12.25307,9.1741006 12.29731,8.992109 12.29731,8.7993821 V 2.7939987 h 8.75605 c 0.404325,0 0.753223,0.2446518 0.901709,0.5974477 0.05198,0.1188793 0.07775,0.2450473 0.07775,0.3824027 V 23.920843 c 0,0.537783 -0.437774,0.979851 -0.979455,0.979851 H 6.0881256 c -0.5420762,0 -0.983749,-0.442068 -0.983749,-0.979851 z"
   style="fill:#4b4b4b;stroke-width:1;stroke-miterlimit:4;stroke-dasharray:none"
   id="path12" /><path
   class="st0"
   d="m 25.915321,5.8412984 h -1.5104 l 0.07769,1.2584032 h 1.432655 c 0.542076,0 0.980245,0.4377742 0.980245,0.9798504 V 28.22649 c 0,0.537838 -0.438169,0.97985 -0.980245,0.97985 H 10.946583 c -0.40472,0 -0.753674,-0.248946 -0.902217,-0.597843 C 9.99634,28.490013 9.966733,28.363845 9.966733,28.22649 V 27.350602 H 8.7083299 v 0.875944 c 0,0.129615 0.011187,0.259286 0.033505,0.382008 0.1819351,1.050251 1.1026283,1.85585 2.2048051,1.85585 h 14.968738 c 1.236085,0 2.238705,-1.00601 2.238705,-2.237858 V 8.0796085 C 28.154027,6.8435234 27.151406,5.8412984 25.915321,5.8412984 Z"
   style="fill:#4b4b4b;stroke-width:1;stroke-miterlimit:4;stroke-dasharray:none"
   id="path14" />
</svg>
