<?xml version="1.0" encoding="UTF-8" standalone="no"?>
<svg
   xmlns:dc="http://purl.org/dc/elements/1.1/"
   xmlns:cc="http://creativecommons.org/ns#"
   xmlns:rdf="http://www.w3.org/1999/02/22-rdf-syntax-ns#"
   xmlns:svg="http://www.w3.org/2000/svg"
   xmlns="http://www.w3.org/2000/svg"
   xmlns:sodipodi="http://sodipodi.sourceforge.net/DTD/sodipodi-0.dtd"
   xmlns:inkscape="http://www.inkscape.org/namespaces/inkscape"
   version="1.1"
   id="Capa_1"
   x="0px"
   y="0px"
   width="32"
   height="32"
   viewBox="0 0 32 32"
   xml:space="preserve"
   sodipodi:docname="paste.svg"
   inkscape:version="1.0 (4035a4fb49, 2020-05-01)"><metadata
   id="metadata42"><rdf:RDF><cc:Work
       rdf:about=""><dc:format>image/svg+xml</dc:format><dc:type
         rdf:resource="http://purl.org/dc/dcmitype/StillImage" /><dc:title /></cc:Work></rdf:RDF></metadata><defs
   id="defs40" /><sodipodi:namedview
   inkscape:snap-page="true"
   inkscape:snap-bbox="true"
   inkscape:document-rotation="0"
   pagecolor="#ffffff"
   bordercolor="#666666"
   borderopacity="1"
   objecttolerance="10"
   gridtolerance="10"
   guidetolerance="10"
   inkscape:pageopacity="0"
   inkscape:pageshadow="2"
   inkscape:window-width="1366"
   inkscape:window-height="705"
   id="namedview38"
   showgrid="false"
   inkscape:zoom="2.5007128"
   inkscape:cx="127.2089"
   inkscape:cy="29.375045"
   inkscape:window-x="-8"
   inkscape:window-y="-8"
   inkscape:window-maximized="1"
   inkscape:current-layer="Capa_1" />
<rect
   y="1.9984014e-15"
   x="-4.2188475e-15"
   height="32"
   width="32"
   id="rect24"
   style="fill:#ffffff;stroke-width:1.06783;paint-order:fill markers stroke;stop-color:#000000" /><g
   id="g5"
   transform="matrix(0.0519637,0,0,0.0519637,1.4241821,1.4241822)">
	<g
   id="content-paste">
		<path
   d="M 459,51 H 351.9 C 341.7,20.4 313.65,0 280.5,0 247.35,0 219.3,20.4 209.1,51 H 102 C 73.95,51 51,73.95 51,102 v 408 c 0,28.05 22.95,51 51,51 h 357 c 28.05,0 51,-22.95 51,-51 V 102 C 510,73.95 487.05,51 459,51 Z M 280.5,51 C 295.8,51 306,61.2 306,76.5 306,91.8 295.8,102 280.5,102 265.2,102 255,91.8 255,76.5 255,61.2 265.2,51 280.5,51 Z M 459,510 H 102 V 102 h 51 v 76.5 H 408 V 102 h 51 z"
   id="path2" />
	</g>
</g>
<g
   id="g7">
</g>
<g
   id="g9">
</g>
<g
   id="g11">
</g>
<g
   id="g13">
</g>
<g
   id="g15">
</g>
<g
   id="g17">
</g>
<g
   id="g19">
</g>
<g
   id="g21">
</g>
<g
   id="g23">
</g>
<g
   id="g25">
</g>
<g
   id="g27">
</g>
<g
   id="g29">
</g>
<g
   id="g31">
</g>
<g
   id="g33">
</g>
<g
   id="g35">
</g>
</svg>
