<?xml version="1.0" encoding="UTF-8" standalone="no"?>
<svg
   xmlns:dc="http://purl.org/dc/elements/1.1/"
   xmlns:cc="http://creativecommons.org/ns#"
   xmlns:rdf="http://www.w3.org/1999/02/22-rdf-syntax-ns#"
   xmlns:svg="http://www.w3.org/2000/svg"
   xmlns="http://www.w3.org/2000/svg"
   xmlns:sodipodi="http://sodipodi.sourceforge.net/DTD/sodipodi-0.dtd"
   xmlns:inkscape="http://www.inkscape.org/namespaces/inkscape"
   inkscape:version="1.0 (4035a4fb49, 2020-05-01)"
   height="32"
   width="32"
   sodipodi:docname="printer.svg"
   xml:space="preserve"
   style="opacity:1"
   viewBox="0 0 32 32"
   y="0px"
   x="0px"
   id="_x32_"
   version="1.1"><metadata
   id="metadata23"><rdf:RDF><cc:Work
       rdf:about=""><dc:format>image/svg+xml</dc:format><dc:type
         rdf:resource="http://purl.org/dc/dcmitype/StillImage" /><dc:title></dc:title></cc:Work></rdf:RDF></metadata><defs
   id="defs21" /><sodipodi:namedview
   inkscape:current-layer="_x32_"
   inkscape:window-maximized="1"
   inkscape:window-y="-8"
   inkscape:window-x="-8"
   inkscape:cy="39.034176"
   inkscape:cx="108.36457"
   inkscape:zoom="2.7400388"
   inkscape:snap-page="true"
   inkscape:snap-bbox="true"
   showgrid="false"
   id="namedview19"
   inkscape:window-height="705"
   inkscape:window-width="1366"
   inkscape:pageshadow="2"
   inkscape:pageopacity="0"
   guidetolerance="10"
   gridtolerance="10"
   objecttolerance="10"
   borderopacity="1"
   bordercolor="#666666"
   pagecolor="#ffffff" />
<style
   id="style2"
   type="text/css">
	.st0{fill:#4B4B4B;}
</style>
<rect
   y="0"
   x="0"
   height="32"
   width="32"
   id="rect848"
   style="fill:#ffffff;stroke-width:0.968987;paint-order:fill markers stroke;stop-color:#000000" /><g
   transform="matrix(0.05695336,0,0,0.05695336,1.4199683,1.4199398)"
   id="g16">
	<rect
   id="rect4"
   style="fill:#4b4b4b"
   height="20.042999"
   width="169.73399"
   class="st0"
   y="332.71899"
   x="171.13" />
	<rect
   id="rect6"
   style="fill:#4b4b4b"
   height="20.051001"
   width="169.73399"
   class="st0"
   y="383.07401"
   x="171.13" />
	<rect
   id="rect8"
   style="fill:#4b4b4b"
   height="20.051001"
   width="80.213997"
   class="st0"
   y="427.84"
   x="171.13" />
	<path
   id="path10"
   style="fill:#4b4b4b"
   d="m 349.151,215.082 c -8.888,0 -16.095,7.203 -16.095,16.086 0,8.902 7.207,16.106 16.095,16.106 8.892,0 16.1,-7.203 16.1,-16.106 0,-8.883 -7.207,-16.086 -16.1,-16.086 z"
   class="st0" />
	<path
   id="path12"
   style="fill:#4b4b4b"
   d="m 417.674,215.082 c -8.892,0 -16.095,7.203 -16.095,16.086 0,8.902 7.203,16.106 16.095,16.106 8.892,0 16.099,-7.203 16.099,-16.106 0,-8.883 -7.207,-16.086 -16.099,-16.086 z"
   class="st0" />
	<path
   id="path14"
   style="fill:#4b4b4b"
   d="m 486.555,160.656 c -9.267,-9.289 -22.206,-15.09 -36.348,-15.164 -0.013,0 -0.087,0 -0.12,0 -0.037,0 -0.074,-0.008 -0.112,-0.008 v 0.008 c -0.049,0 -0.086,0 -0.152,0 H 413.136 V 80.758 L 332.38,0 H 324.077 98.859 V 145.492 H 62.073 c -0.025,0 -0.028,0 -0.054,0 -14.241,0 -27.279,5.82 -36.6,15.18 l 0.013,-0.016 c -9.346,9.32 -15.16,22.352 -15.16,36.609 v 164.082 c 0,14.258 5.81,27.297 15.16,36.625 9.037,9.066 21.58,14.734 35.306,15.09 l 0.165,0.066 H 98.859 V 512 h 314.278 v -98.879 l 36.81,0.008 c 0.416,-0.008 0.623,-0.043 0.63,-0.031 v -0.012 c 13.986,-0.164 26.781,-5.914 35.973,-15.113 9.35,-9.313 15.177,-22.348 15.177,-36.625 V 197.266 c 0,-14.266 -5.831,-27.297 -15.172,-36.61 z M 321.045,36.871 374.404,90.234 h -53.359 z m -188.097,-2.785 168.045,0.008 v 76.192 h 78.054 v 41.223 H 132.948 Z M 379.047,477.914 H 132.948 v -84.836 h -0.012 v -88.527 h 246.098 v 102.562 h 0.013 z m 88.594,-116.566 c -0.009,4.945 -1.961,9.274 -5.184,12.512 -3.246,3.223 -7.582,5.176 -12.51,5.176 H 407.108 V 276.48 H 104.862 V 379.035 H 62.049 c -4.949,0 -9.276,-1.953 -12.514,-5.176 -3.214,-3.23 -5.168,-7.558 -5.176,-12.512 V 197.266 c 0.008,-4.93 1.957,-9.266 5.179,-12.512 3.243,-3.215 7.57,-5.16 12.51,-5.176 h 42.826 302.246 42.826 c 4.92,0.016 9.255,1.961 12.507,5.192 3.226,3.246 5.179,7.582 5.188,12.496 z"
   class="st0" />
</g>
</svg>
